<svg width="1200" height="420" viewBox="0 0 1200 420" fill="none" xmlns="http://www.w3.org/2000/svg" role="img" aria-labelledby="title desc">
  <title id="title">DeerFlow Engineering Notes</title>
  <desc id="desc">One main line through the DeerFlow runtime: from a prompt, past the gateway, into the agent graph, tools, sandbox, subagents, skills, and persistence. Nine stops are published.</desc>

  <defs>
    <linearGradient id="paper" x1="0" y1="0" x2="1200" y2="420" gradientUnits="userSpaceOnUse">
      <stop stop-color="#FBF4E8"/>
      <stop offset="1" stop-color="#EFE1C7"/>
    </linearGradient>
    <pattern id="grid" width="32" height="32" patternUnits="userSpaceOnUse">
      <path d="M 32 0 L 0 0 0 32" stroke="#2C5A86" stroke-opacity=".09" stroke-width="1"/>
    </pattern>
    <pattern id="gridMajor" width="128" height="128" patternUnits="userSpaceOnUse">
      <path d="M 128 0 L 0 0 0 128" stroke="#2C5A86" stroke-opacity=".10" stroke-width="1"/>
    </pattern>
    <filter id="nodeShadow" x="-60%" y="-60%" width="220%" height="220%">
      <feDropShadow dx="0" dy="3" stdDeviation="4" flood-color="#6B5335" flood-opacity=".22"/>
    </filter>
  </defs>

  <!-- paper + graph-paper grid -->
  <rect width="1200" height="420" rx="26" fill="url(#paper)"/>
  <rect width="1200" height="420" rx="26" fill="url(#grid)"/>
  <rect width="1200" height="420" rx="26" fill="url(#gridMajor)"/>
  <rect x="1" y="1" width="1198" height="418" rx="25" fill="none" stroke="#D6C7AA" stroke-opacity=".7"/>

  <!-- masthead -->
  <rect x="64" y="74" width="9" height="9" fill="#CE4326" transform="rotate(45 68.5 78.5)"/>
  <text x="86" y="84" fill="#2C5A86" font-family="ui-monospace, SFMono-Regular, Menlo, Consolas, monospace" font-size="17" font-weight="600" letter-spacing="1.5">deerflow / source-reading</text>
  <text x="84" y="172" fill="#211D16" font-family="Georgia, 'Times New Roman', serif" font-size="66" font-weight="700" letter-spacing="-1">Engineering Notes</text>
  <text x="86" y="214" fill="#564D3E" font-family="ui-sans-serif, system-ui, -apple-system, 'Segoe UI', sans-serif" font-size="23">From one sentence to one agent run.</text>

  <!-- the main line: prompt -> 9 stations -->
  <g>
    <!-- published segment (solid vermilion): prompt through 09 -->
    <path d="M96 318 H1104" stroke="#CE4326" stroke-width="3" stroke-linecap="round"/>

    <!-- prompt entry -->
    <circle cx="96" cy="318" r="13" fill="#CE4326" fill-opacity=".13"/>
    <circle cx="96" cy="318" r="6" fill="#CE4326"/>
    <text x="96" y="350" text-anchor="middle" fill="#94886F" font-family="ui-monospace, SFMono-Regular, Menlo, Consolas, monospace" font-size="12">prompt</text>

    <!-- published nodes -->
    <g filter="url(#nodeShadow)">
      <rect x="200" y="310" width="16" height="16" rx="3" fill="#CE4326"/>
      <rect x="312" y="310" width="16" height="16" rx="3" fill="#CE4326"/>
      <rect x="424" y="310" width="16" height="16" rx="3" fill="#CE4326"/>
      <rect x="536" y="310" width="16" height="16" rx="3" fill="#CE4326"/>
      <rect x="648" y="310" width="16" height="16" rx="3" fill="#CE4326"/>
      <rect x="760" y="310" width="16" height="16" rx="3" fill="#CE4326"/>
      <rect x="872" y="310" width="16" height="16" rx="3" fill="#CE4326"/>
      <rect x="984" y="310" width="16" height="16" rx="3" fill="#CE4326"/>
      <rect x="1096" y="310" width="16" height="16" rx="3" fill="#CE4326"/>
    </g>
    <circle cx="208" cy="318" r="15" fill="#CE4326" fill-opacity=".12"/>
    <circle cx="320" cy="318" r="15" fill="#CE4326" fill-opacity=".12"/>
    <circle cx="432" cy="318" r="15" fill="#CE4326" fill-opacity=".12"/>
    <circle cx="544" cy="318" r="15" fill="#CE4326" fill-opacity=".12"/>
    <circle cx="656" cy="318" r="15" fill="#CE4326" fill-opacity=".12"/>
    <circle cx="768" cy="318" r="15" fill="#CE4326" fill-opacity=".12"/>
    <circle cx="880" cy="318" r="15" fill="#CE4326" fill-opacity=".12"/>
    <circle cx="992" cy="318" r="15" fill="#CE4326" fill-opacity=".12"/>
    <circle cx="1104" cy="318" r="15" fill="#CE4326" fill-opacity=".12"/>

    <!-- station numbers (above) -->
    <g font-family="ui-monospace, SFMono-Regular, Menlo, Consolas, monospace" font-size="13" font-weight="700" text-anchor="middle">
      <text x="208" y="296" fill="#211D16">01</text>
      <text x="320" y="296" fill="#211D16">02</text>
      <text x="432" y="296" fill="#211D16">03</text>
      <text x="544" y="296" fill="#211D16">04</text>
      <text x="656" y="296" fill="#211D16">05</text>
      <text x="768" y="296" fill="#211D16">06</text>
      <text x="880" y="296" fill="#211D16">07</text>
      <text x="992" y="296" fill="#211D16">08</text>
      <text x="1104" y="296" fill="#211D16">09</text>
    </g>

    <!-- station labels (below) -->
    <g font-family="ui-monospace, SFMono-Regular, Menlo, Consolas, monospace" font-size="12.5" text-anchor="middle">
      <text x="208" y="350" fill="#564D3E">entry</text>
      <text x="320" y="350" fill="#564D3E">factory</text>
      <text x="432" y="350" fill="#564D3E">tools</text>
      <text x="544" y="350" fill="#564D3E">mw · in</text>
      <text x="656" y="350" fill="#564D3E">mw · out</text>
      <text x="768" y="350" fill="#564D3E">sandbox</text>
      <text x="880" y="350" fill="#564D3E">subagents</text>
      <text x="992" y="350" fill="#564D3E">skills</text>
      <text x="1104" y="350" fill="#564D3E">store</text>
    </g>
  </g>

  <!-- legend, bottom-left (carries the stop counts too) -->
  <g font-family="ui-monospace, SFMono-Regular, Menlo, Consolas, monospace" font-size="12.5">
    <rect x="86" y="380" width="11" height="11" rx="2" fill="#CE4326"/>
    <text x="104" y="390" fill="#564D3E">9 published</text>
  </g>
</svg>
